<svg version="1.1" xmlns="http://www.w3.org/2000/svg" width="27.2589" height="27.2589" viewBox="0,0,27.2589,27.2589"><g transform="translate(-226.37055,-166.37055)"><g fill-rule="nonzero" stroke-width="2" stroke-linejoin="miter" stroke-miterlimit="10" stroke-dasharray="" stroke-dashoffset="0" style="mix-blend-mode: normal"><path d="M227.37055,180c0,-6.97505 5.65439,-12.62945 12.62945,-12.62945c6.97505,0 12.62945,5.65439 12.62945,12.62945c0,6.97505 -5.65439,12.62945 -12.62945,12.62945c-6.97505,0 -12.62945,-5.65439 -12.62945,-12.62945z" fill="#ffd500" stroke="#d69300" stroke-linecap="butt"/><path d="M240,186.40349v-12.80699" fill="none" stroke="#000000" stroke-linecap="round"/><path d="M246.4035,180h-12.80699" fill="none" stroke="#000000" stroke-linecap="round"/><g fill="none" stroke="#000000" stroke-linecap="round"><path d="M239.98904,172.77412l-2.60965,2.60965"/><path d="M240.01097,172.77412l2.60965,2.60965"/></g><g fill="none" stroke="#000000" stroke-linecap="round"><path d="M239.98904,187.22588l-2.60965,-2.60965"/><path d="M242.62062,184.61623l-2.60965,2.60965"/></g><g fill="none" stroke="#000000" stroke-linecap="round"><path d="M247.22588,179.98904l-2.60965,-2.60965"/><path d="M247.22588,180.01097l-2.60965,2.60965"/></g><g fill="none" stroke="#000000" stroke-linecap="round"><path d="M232.77412,179.98904l2.60965,-2.60965"/><path d="M232.77412,180.01097l2.60965,2.60965"/></g></g></g></svg>