<svg version="1.1" xmlns="http://www.w3.org/2000/svg" xmlns:xlink="http://www.w3.org/1999/xlink" width="49.42106" height="49.42106" viewBox="0,0,49.42106,49.42106"><g transform="translate(-215.28947,-155.28947)"><g data-paper-data="{&quot;isPaintingLayer&quot;:true}" fill-rule="nonzero" stroke-linejoin="miter" stroke-miterlimit="10" stroke-dasharray="" stroke-dashoffset="0" style="mix-blend-mode: normal"><path d="M216.28947,180c0,-13.09496 10.61556,-23.71053 23.71053,-23.71053c13.09496,0 23.71053,10.61556 23.71053,23.71053c0,13.09496 -10.61556,23.71053 -23.71053,23.71053c-13.09496,0 -23.71053,-10.61556 -23.71053,-23.71053z" fill="#919191" stroke="#525252" stroke-width="2" stroke-linecap="butt"/><path d="M224.47368,186.97368c0,-3.56078 2.88659,-6.44737 6.44737,-6.44737c3.56078,0 6.44737,2.88659 6.44737,6.44737c0,3.56078 -2.88659,6.44737 -6.44737,6.44737c-3.56078,0 -6.44737,-2.88659 -6.44737,-6.44737z" fill="#d4d2d2" stroke="#0a0a0a" stroke-width="3" stroke-linecap="butt"/><path d="M242.63158,173.02631c0,-3.56079 2.88658,-6.44736 6.44737,-6.44736c3.56079,0 6.44737,2.88658 6.44737,6.44736c0,3.56079 -2.88658,6.44737 -6.44737,6.44737c-3.56079,0 -6.44737,-2.88658 -6.44737,-6.44737z" fill="#d4d2d2" stroke="#0a0a0a" stroke-width="3" stroke-linecap="butt"/><path d="M230.52631,186.8421l18.42105,-14.21053" fill="none" stroke="#0a0a0a" stroke-width="3" stroke-linecap="round"/></g></g></svg>