<svg version="1.1" xmlns="http://www.w3.org/2000/svg" xmlns:xlink="http://www.w3.org/1999/xlink" width="49.42106" height="49.42106" viewBox="0,0,49.42106,49.42106"><g transform="translate(-215.28947,-155.28947)"><g data-paper-data="{&quot;isPaintingLayer&quot;:true}" fill-rule="nonzero" stroke-width="2" stroke-linejoin="miter" stroke-miterlimit="10" stroke-dasharray="" stroke-dashoffset="0" style="mix-blend-mode: normal"><path d="M216.28947,180c0,-13.09496 10.61556,-23.71053 23.71053,-23.71053c13.09496,0 23.71053,10.61556 23.71053,23.71053c0,13.09496 -10.61556,23.71053 -23.71053,23.71053c-13.09496,0 -23.71053,-10.61556 -23.71053,-23.71053z" fill="#ffc65c" stroke="#a86b31" stroke-linecap="butt"/><path d="M230.87178,184.1692v-18.50159h5.28169v18.12401" fill="none" stroke="#000000" stroke-linecap="round"/><path d="M236.36474,184.07385v-11.06434h5.28169v10.83854" fill="none" stroke="#000000" stroke-linecap="round"/><path d="M242.06896,183.9785v-10.20619h5.28169v9.99791" fill="none" stroke="#000000" stroke-linecap="round"/><path d="M247.42108,184.1692v-8.30103h4.29577v8.13163" fill="none" stroke="#000000" stroke-linecap="round"/><path d="M228.11073,184.40264v-9.2348h2.73127v9.04634" fill="none" stroke="#000000" stroke-linecap="round"/><path d="M251.71685,179.88183v9.82093l-1.74929,4.62963h-18.2716l-3.52775,-4.62963v-10.12198" data-paper-data="{&quot;index&quot;:null}" fill="none" stroke="#000000" stroke-linecap="round"/></g></g></svg>