<svg version="1.1" xmlns="http://www.w3.org/2000/svg" width="55.06839" height="58.15725"
     viewBox="0,0,55.06839,58.15725"><defs><radialGradient cx="240" cy="180" r="26.76766" gradientUnits="userSpaceOnUse" id="color-1"><stop offset="0" stop-color="#00ffff"/><stop offset="1" stop-color="#00ffff" stop-opacity="0"/></radialGradient></defs><g transform="translate(-213.23234,-153.23234)"><g fill-rule="nonzero" stroke-linecap="butt" stroke-linejoin="miter" stroke-miterlimit="10" stroke-dasharray="" stroke-dashoffset="0" style="mix-blend-mode: normal"><path d="M213.23234,180c0,-14.78337 11.98429,-26.76766 26.76766,-26.76766c14.78337,0 26.76766,11.98429 26.76766,26.76766c0,14.78337 -11.98429,26.76766 -26.76766,26.76766c-14.78337,0 -26.76766,-11.98429 -26.76766,-26.76766z" fill="url(#color-1)" stroke="none" stroke-width="0"/><path d="M256.78008,211.38959v-12.02155h11.52065v12.02155z" fill="none" stroke="none" stroke-width="0"/><path d="M220.51972,180c0,-10.75866 8.72162,-19.48028 19.48028,-19.48028c10.75866,0 19.48028,8.72162 19.48028,19.48028c0,10.75866 -8.72162,19.48028 -19.48028,19.48028c-10.75866,0 -19.48028,-8.72162 -19.48028,-19.48028z" fill="#d4d2d2" stroke="#0a0a0a" stroke-width="2"/><path d="M225.33151,180c0,-8.10118 6.56731,-14.6685 14.6685,-14.6685c8.10118,0 14.6685,6.56731 14.6685,14.6685c0,8.10118 -6.56731,14.6685 -14.6685,14.6685c-8.10118,0 -14.6685,-6.56731 -14.6685,-14.6685z" fill="#00ffff" stroke="#0a0a0a" stroke-width="2"/><path d="M230.88995,180c0,-5.03134 4.07871,-9.11005 9.11005,-9.11005c5.03134,0 9.11005,4.07871 9.11005,9.11005c0,5.03134 -4.07871,9.11005 -9.11005,9.11005c-5.03134,0 -9.11005,-4.07871 -9.11005,-9.11005z" fill="#d4d2d2" stroke="#0a0a0a" stroke-width="2"/></g></g></svg>