<svg version="1.1" xmlns="http://www.w3.org/2000/svg" width="121.02681" height="121.02681"
     viewBox="0,0,121.02681,121.02681"><defs><radialGradient cx="240" cy="180" r="60.5134" gradientUnits="userSpaceOnUse" id="color-1"><stop offset="0" stop-color="#ffe300"/><stop offset="1" stop-color="#ffe300" stop-opacity="0"/></radialGradient><radialGradient cx="240" cy="180" r="19.48028" gradientUnits="userSpaceOnUse" id="color-2"><stop offset="0" stop-color="#ffffff"/><stop offset="1" stop-color="#ffe300"/></radialGradient></defs><g transform="translate(-179.4866,-119.4866)"><g fill-rule="nonzero" stroke-linecap="butt" stroke-linejoin="miter" stroke-miterlimit="10" stroke-dasharray="" stroke-dashoffset="0" style="mix-blend-mode: normal"><path d="M179.4866,180c0,-33.42063 27.09277,-60.5134 60.5134,-60.5134c33.42063,0 60.5134,27.09277 60.5134,60.5134c0,33.42063 -27.09277,60.5134 -60.5134,60.5134c-33.42063,0 -60.5134,-27.09277 -60.5134,-60.5134z" fill="url(#color-1)" stroke="none" stroke-width="0"/><path d="M220.51972,180c0,-10.75866 8.72162,-19.48028 19.48028,-19.48028c10.75866,0 19.48028,8.72162 19.48028,19.48028c0,10.75866 -8.72162,19.48028 -19.48028,19.48028c-10.75866,0 -19.48028,-8.72162 -19.48028,-19.48028z" fill="url(#color-2)" stroke="#0a0a0a" stroke-width="2"/><path d="M256.78008,211.38959v-12.02155h11.52065v12.02155z" fill="none" stroke="none" stroke-width="0"/><path d="M230.88995,180c0,-5.03134 4.07871,-9.11005 9.11005,-9.11005c5.03134,0 9.11005,4.07871 9.11005,9.11005c0,5.03134 -4.07871,9.11005 -9.11005,9.11005c-5.03134,0 -9.11005,-4.07871 -9.11005,-9.11005z" fill="#d4d2d2" stroke="#0a0a0a" stroke-width="2"/></g></g></svg>