<svg version="1.1" xmlns="http://www.w3.org/2000/svg" width="48.78101" height="51.86987"
     viewBox="0,0,48.78101,51.86987"><g transform="translate(-219.51972,-159.51972)"><g fill-rule="nonzero" stroke-linecap="butt" stroke-linejoin="miter" stroke-miterlimit="10" stroke-dasharray="" stroke-dashoffset="0" style="mix-blend-mode: normal"><path d="M220.51972,180c0,-10.75866 8.72162,-19.48028 19.48028,-19.48028c10.75866,0 19.48028,8.72162 19.48028,19.48028c0,10.75866 -8.72162,19.48028 -19.48028,19.48028c-10.75866,0 -19.48028,-8.72162 -19.48028,-19.48028z" fill="#333333" stroke="#0a0a0a" stroke-width="2"/><path d="M256.78008,211.38959v-12.02155h11.52065v12.02155z" fill="none" stroke="none" stroke-width="0"/><path d="M230.88995,180c0,-5.03134 4.07871,-9.11005 9.11005,-9.11005c5.03134,0 9.11005,4.07871 9.11005,9.11005c0,5.03134 -4.07871,9.11005 -9.11005,9.11005c-5.03134,0 -9.11005,-4.07871 -9.11005,-9.11005z" fill="#d4d2d2" stroke="#0a0a0a" stroke-width="2"/></g></g></svg>